<?xml version="1.0" standalone="no"?>
<!DOCTYPE svg PUBLIC "-//W3C//DTD SVG 20010904//EN"
 "http://www.w3.org/TR/2001/REC-SVG-20010904/DTD/svg10.dtd">
<svg version="1.0" xmlns="http://www.w3.org/2000/svg"
 width="200.000000pt" height="200.000000pt" viewBox="0 0 200.000000 200.000000"
 preserveAspectRatio="xMidYMid meet">
<metadata>
Created by potrace 1.16, written by Peter Selinger 2001-2019
</metadata>
<g transform="translate(0.000000,200.000000) scale(0.100000,-0.100000)"
fill="#000000" stroke="none">
<path d="M837 1845 c-387 -74 -683 -393 -726 -785 -32 -294 89 -598 311 -781
l53 -44 -67 72 c-410 440 -232 1138 341 1334 92 32 102 33 251 34 149 0 159
-2 250 -33 52 -18 126 -51 163 -73 83 -50 194 -152 252 -234 224 -316 194
-742 -73 -1028 -51 -54 -57 -64 -27 -40 217 170 354 483 330 753 -29 341 -216
613 -518 756 -154 73 -372 101 -540 69z"/>
<path d="M900 1500 c0 -17 -7 -20 -53 -20 -80 0 -97 -17 -97 -94 0 -66 13 -90
55 -98 19 -3 20 -12 23 -135 l3 -131 -53 -30 c-149 -84 -230 -224 -230 -397 0
-132 38 -228 128 -319 223 -228 618 -155 743 137 91 213 8 464 -193 577 l-57
32 3 131 c3 123 4 132 23 135 42 8 55 32 55 97 0 80 -15 95 -93 95 -50 0 -57
2 -57 20 0 19 -7 20 -100 20 -93 0 -100 -1 -100 -20z m13 -125 c5 -33 11 -75
13 -92 l5 -33 73 0 74 0 6 78 c10 112 10 112 59 112 59 0 69 -9 65 -60 -3 -39
-6 -45 -32 -51 -16 -5 -33 -14 -37 -21 -12 -18 -11 -286 1 -308 5 -10 33 -31
62 -48 69 -38 143 -118 176 -190 24 -51 27 -69 27 -167 0 -104 -2 -114 -32
-176 -79 -162 -267 -262 -434 -231 -164 30 -290 142 -334 296 -22 76 -16 189
14 268 27 69 104 157 170 195 85 49 81 39 81 202 0 80 -4 152 -9 159 -4 7 -21
16 -37 21 -26 6 -29 12 -32 51 -4 52 7 61 68 58 l45 -3 8 -60z"/>
<path d="M1167 373 c-98 -74 -177 -136 -175 -139 10 -9 135 19 177 40 61 31
143 119 166 179 10 26 16 49 14 51 -2 2 -84 -57 -182 -131z"/>
</g>
</svg>
