<?xml version="1.0" standalone="no"?>
<!DOCTYPE svg PUBLIC "-//W3C//DTD SVG 20010904//EN"
 "http://www.w3.org/TR/2001/REC-SVG-20010904/DTD/svg10.dtd">
<svg version="1.0" xmlns="http://www.w3.org/2000/svg"
 width="200.000000pt" height="200.000000pt" viewBox="0 0 200.000000 200.000000"
 preserveAspectRatio="xMidYMid meet">
<metadata>
Created by potrace 1.16, written by Peter Selinger 2001-2019
</metadata>
<g transform="translate(0.000000,200.000000) scale(0.100000,-0.100000)"
fill="#000000" stroke="none">
<path d="M878 1859 c-104 -15 -182 -40 -283 -89 -234 -115 -398 -316 -471
-576 -25 -90 -30 -311 -9 -416 17 -89 63 -205 117 -296 50 -86 208 -240 302
-295 44 -26 82 -44 85 -40 3 3 0 8 -7 10 -35 13 -179 132 -222 184 -150 180
-220 410 -190 621 75 531 608 846 1100 652 339 -134 557 -513 497 -865 -9 -53
-28 -129 -43 -169 -55 -148 -190 -313 -322 -395 -87 -54 -69 -57 24 -4 90 51
217 167 279 253 65 91 121 216 146 322 18 81 21 114 17 242 -5 124 -10 160
-33 232 -60 190 -170 345 -325 459 -190 141 -434 204 -662 170z"/>
<path d="M893 1511 c4 -16 -3 -19 -54 -23 -82 -6 -99 -24 -99 -104 0 -56 3
-65 26 -83 15 -12 33 -21 40 -21 11 0 14 -26 14 -128 l0 -127 -47 -25 c-77
-41 -149 -119 -191 -207 -36 -77 -37 -80 -37 -198 0 -117 1 -122 36 -196 169
-354 668 -355 837 -2 36 77 37 80 37 198 0 118 -1 121 -37 198 -42 88 -114
166 -191 207 l-47 25 0 127 c0 102 3 128 14 128 7 0 25 9 40 21 23 18 26 27
26 83 0 79 -17 97 -95 104 -46 4 -55 8 -55 23 0 17 -9 19 -111 19 -104 0 -111
-1 -106 -19z m11 -108 c3 -16 8 -56 12 -91 l6 -63 82 3 81 3 9 88 8 87 49 0
49 0 0 -45 c0 -38 -3 -45 -20 -45 -11 0 -29 -9 -40 -20 -18 -18 -20 -33 -20
-160 0 -76 5 -149 11 -162 5 -13 34 -36 64 -52 143 -74 231 -249 206 -406 -20
-120 -88 -224 -189 -289 -240 -152 -566 -1 -612 286 -26 159 62 334 205 409
30 16 59 39 64 52 6 13 11 86 11 162 0 127 -2 142 -20 160 -11 11 -29 20 -40
20 -17 0 -20 7 -20 45 l0 45 49 0 c46 0 50 -2 55 -27z"/>
<path d="M1045 759 c-135 -39 -207 -45 -298 -26 -92 19 -90 19 -107 -56 -28
-132 14 -263 115 -356 77 -70 122 -86 250 -86 106 0 112 1 173 34 140 76 217
231 192 386 -11 70 -22 89 -60 105 -40 17 -45 9 -24 -32 27 -49 26 -174 0
-194 -32 -23 -46 -1 -46 71 0 49 -6 74 -28 116 -25 48 -32 54 -62 56 -19 1
-66 -7 -105 -18z"/>
</g>
</svg>
