<?xml version="1.0" standalone="no"?>
<!DOCTYPE svg PUBLIC "-//W3C//DTD SVG 20010904//EN"
 "http://www.w3.org/TR/2001/REC-SVG-20010904/DTD/svg10.dtd">
<svg version="1.0" xmlns="http://www.w3.org/2000/svg"
 width="200.000000pt" height="200.000000pt" viewBox="0 0 200.000000 200.000000"
 preserveAspectRatio="xMidYMid meet">
<metadata>
Created by potrace 1.16, written by Peter Selinger 2001-2019
</metadata>
<g transform="translate(0.000000,200.000000) scale(0.100000,-0.100000)"
fill="#000000" stroke="none">
<path d="M435 1416 c-128 -32 -238 -122 -295 -241 -30 -61 -35 -82 -38 -166
-6 -136 20 -220 99 -317 33 -41 126 -112 147 -112 8 0 -3 13 -24 28 -103 76
-162 177 -171 295 -13 169 75 314 236 391 59 27 76 31 157 31 84 0 95 -3 166
-37 90 -45 148 -103 189 -192 54 -115 47 -252 -17 -361 -25 -44 -127 -145
-145 -145 -5 0 -9 -5 -9 -11 0 -16 58 21 122 80 41 37 69 75 94 127 33 66 38
84 42 172 5 113 -15 189 -74 278 -100 150 -298 225 -479 180z"/>
<path d="M490 1250 c0 -5 -13 -10 -28 -10 -15 0 -33 -5 -40 -12 -22 -22 -12
-88 14 -88 11 0 14 -16 14 -65 0 -60 -2 -65 -27 -79 -123 -64 -146 -266 -41
-363 101 -94 274 -77 353 36 25 36 30 54 33 116 5 96 -19 152 -89 202 -48 34
-49 36 -49 89 0 44 4 55 21 64 16 9 20 19 17 53 -3 39 -5 42 -35 45 -18 2 -33
7 -33 13 0 5 -25 9 -55 9 -30 0 -55 -4 -55 -10z m4 -56 c3 -9 6 -29 6 -45 0
-28 2 -29 45 -29 43 0 45 1 45 29 0 42 10 61 31 61 25 0 25 -32 -1 -48 -17
-10 -20 -23 -20 -85 0 -81 2 -86 48 -113 119 -69 122 -250 4 -325 -64 -41
-117 -46 -181 -19 -53 24 -96 65 -84 83 3 5 1 7 -5 3 -13 -8 -26 29 -16 45 4
8 3 9 -4 5 -9 -5 -12 8 -12 46 0 66 40 137 92 164 45 23 48 29 48 111 0 62 -3
75 -20 85 -26 16 -26 48 -1 48 10 0 22 -7 25 -16z"/>
<path d="M717 832 c-5 -7 -13 -9 -19 -6 -6 4 -9 3 -6 -2 3 -5 2 -20 -3 -33 -7
-18 -13 -21 -21 -13 -7 7 -37 -9 -107 -61 -53 -39 -98 -73 -101 -75 -2 -2 2
-7 10 -12 23 -15 128 -12 159 4 41 22 89 81 96 119 9 44 3 97 -8 79z"/>
<path d="M1269 1044 c-7 -9 -17 -9 -40 -1 -56 22 -89 -22 -89 -120 0 -61 1
-63 25 -63 23 0 25 4 25 40 0 33 3 40 20 40 13 0 20 7 20 20 0 14 -7 20 -21
20 -32 0 -17 23 17 25 38 2 44 -8 44 -82 0 -63 0 -63 29 -63 53 0 103 64 74
94 -4 4 -6 22 -5 40 2 20 -3 37 -12 45 -21 17 -74 20 -87 5z"/>
<path d="M1626 1044 c-16 -11 -17 -17 -8 -26 7 -7 12 -42 12 -85 0 -66 2 -73
20 -73 18 0 20 7 20 69 0 39 5 73 10 76 6 4 10 -22 10 -69 0 -68 2 -76 19 -76
16 0 21 10 26 58 10 97 12 100 14 20 l1 -78 75 0 c68 0 75 2 75 20 0 15 -7 20
-25 20 -24 0 -25 2 -25 75 0 73 -1 75 -25 75 -18 0 -25 -5 -25 -20 0 -17 -2
-17 -25 6 -20 20 -29 23 -44 15 -10 -6 -21 -8 -24 -5 -12 12 -64 11 -81 -2z"/>
</g>
</svg>
